<svg xmlns="http://www.w3.org/2000/svg" xmlns:xlink="http://www.w3.org/1999/xlink" width="75px" height="101px" viewBox="0 0 74.34 101.37"><defs><style>.cls-1,.cls-2{stroke:#6a4009;}.cls-1,.cls-10,.cls-11,.cls-12,.cls-13,.cls-2,.cls-3,.cls-9{stroke-miterlimit:10;}.cls-1,.cls-10,.cls-11,.cls-12,.cls-13,.cls-2,.cls-9{stroke-width:0.5px;}.cls-1{fill:url(#Dégradé_sans_nom_21);}.cls-2{fill:url(#Dégradé_sans_nom_25);}.cls-3{stroke:#1d1d1b;fill:url(#Dégradé_sans_nom_5);}.cls-4{fill:url(#Dégradé_sans_nom_11);}.cls-5{fill:url(#Dégradé_sans_nom_15);}.cls-6{fill:url(#Dégradé_sans_nom_15-2);}.cls-7{fill:#c6c6c6;}.cls-8{fill:url(#Dégradé_sans_nom_21-2);}.cls-10,.cls-9{stroke:#111f15;}.cls-9{fill:url(#Dégradé_sans_nom_59);}.cls-10{fill:url(#Dégradé_sans_nom_59-2);}.cls-11,.cls-12,.cls-13{stroke:#194a22;}.cls-11{fill:url(#Dégradé_sans_nom_59-3);}.cls-12{fill:url(#Dégradé_sans_nom_59-4);}.cls-13{fill:url(#Dégradé_sans_nom_59-5);}</style><radialGradient id="Dégradé_sans_nom_21" cx="27.35" cy="93.67" r="6.78" gradientUnits="userSpaceOnUse"><stop offset="0" stop-color="#fff"/><stop offset="0.08" stop-color="#fef7ec"/><stop offset="0.26" stop-color="#fce2bb"/><stop offset="0.5" stop-color="#f8c06d"/><stop offset="0.8" stop-color="#f39302"/><stop offset="0.81" stop-color="#f39200"/></radialGradient><radialGradient id="Dégradé_sans_nom_25" cx="-16.92" cy="92.78" r="6.78" gradientTransform="matrix(-1, -0.05, -0.05, 1, 34.87, 0.87)" gradientUnits="userSpaceOnUse"><stop offset="0.05" stop-color="#fff"/><stop offset="0.13" stop-color="#fef7ec"/><stop offset="0.29" stop-color="#fce2bb"/><stop offset="0.52" stop-color="#f8c06d"/><stop offset="0.8" stop-color="#f39302"/><stop offset="0.81" stop-color="#f39200"/></radialGradient><radialGradient id="Dégradé_sans_nom_5" cx="37.17" cy="50.49" r="40.62" gradientTransform="translate(0 -2.69) scale(1 1.05)" gradientUnits="userSpaceOnUse"><stop offset="0.04" stop-color="#fff"/><stop offset="0.24" stop-color="#b5b5b5"/><stop offset="0.47" stop-color="#686868"/><stop offset="0.66" stop-color="#303030"/><stop offset="0.8" stop-color="#0d0d0d"/><stop offset="0.87"/></radialGradient><radialGradient id="Dégradé_sans_nom_11" cx="37.17" cy="49.55" r="23.02" gradientTransform="translate(0.3 -34.29) rotate(0.21) scale(1 1.69)" gradientUnits="userSpaceOnUse"><stop offset="0.68" stop-color="#fff"/><stop offset="0.68" stop-color="#fdfdfd"/><stop offset="0.83" stop-color="#b2b2b2"/></radialGradient><radialGradient id="Dégradé_sans_nom_15" cx="30.71" cy="25.12" r="2.67" gradientUnits="userSpaceOnUse"><stop offset="0.15" stop-color="#fff"/><stop offset="0.22" stop-color="#ddd"/><stop offset="0.33" stop-color="#a3a3a2"/><stop offset="0.45" stop-color="#737372"/><stop offset="0.55" stop-color="#4e4e4c"/><stop offset="0.65" stop-color="#333331"/><stop offset="0.74" stop-color="#232321"/><stop offset="0.81" stop-color="#1d1d1b"/></radialGradient><radialGradient id="Dégradé_sans_nom_15-2" cx="44.08" cy="25.12" r="2.67" xlink:href="#Dégradé_sans_nom_15"/><radialGradient id="Dégradé_sans_nom_21-2" cx="37.66" cy="31.29" r="4.45" xlink:href="#Dégradé_sans_nom_21"/><radialGradient id="Dégradé_sans_nom_59" cx="37.58" cy="9.23" fx="50.163863113658266" r="18.14" gradientUnits="userSpaceOnUse"><stop offset="0.12" stop-color="#95c11f"/><stop offset="0.23" stop-color="#66b827"/><stop offset="0.35" stop-color="#3aaf2f"/><stop offset="0.45" stop-color="#1aa934"/><stop offset="0.54" stop-color="#07a538"/><stop offset="0.6" stop-color="#00a439"/><stop offset="0.91" stop-color="#063"/></radialGradient><radialGradient id="Dégradé_sans_nom_59-2" cx="37.66" cy="15.13" fx="50.51112176142025" r="18.54" xlink:href="#Dégradé_sans_nom_59"/><radialGradient id="Dégradé_sans_nom_59-3" cx="23.45" cy="54.22" fx="30.290173943099127" r="9.87" gradientTransform="matrix(1, -0.06, 0.02, 0.42, -1.31, 33.08)" xlink:href="#Dégradé_sans_nom_59"/><radialGradient id="Dégradé_sans_nom_59-4" cx="36.89" cy="45.76" fx="52.23399289989136" r="22.13" gradientTransform="matrix(1, -0.06, 0.02, 0.42, -1.07, 28.94)" xlink:href="#Dégradé_sans_nom_59"/><radialGradient id="Dégradé_sans_nom_59-5" cx="36.89" cy="42.22" fx="50.77924622174644" r="20.04" gradientTransform="matrix(1, -0.06, 0.02, 0.42, -0.98, 26.87)" xlink:href="#Dégradé_sans_nom_59"/></defs><g id="Calque_2" data-name="Calque 2"><g id="Calque_1-2" data-name="Calque 1"><path class="cls-1" d="M25.42,87.33c-.75.84.57,2-.09,3.73-.87,2.28-3.75,2-4.49,4.3a3.62,3.62,0,0,0,.38,2.9c.76,1.2,2.23,1.44,5.14,1.86,3.61.53,5.52.79,6.72-.46A3.61,3.61,0,0,0,34,97.32c0-1.78-1.61-2.17-2.14-4.29-.47-1.85.54-2.36,0-3.65C30.9,87.08,26.55,86.06,25.42,87.33Z"/><path class="cls-2" d="M49.37,88.14c.71.89-.67,2-.09,3.74.75,2.32,3.64,2.17,4.26,4.51A3.57,3.57,0,0,1,53,99.27c-.82,1.16-2.3,1.33-5.22,1.61-3.63.35-5.55.5-6.69-.81a3.65,3.65,0,0,1-.82-2.38c.1-1.78,1.72-2.09,2.36-4.18.56-1.82-.42-2.38.18-3.64C43.92,87.62,48.31,86.82,49.37,88.14Z"/><path class="cls-3" d="M73.81,54.29A2.67,2.67,0,0,1,72.38,56c-1.2.6-2.42,0-4.72-.85-3.23-1.13-5.76-2-6.58-1.15-.53.56,0,1.41.42,3.72a21.8,21.8,0,0,1,0,6.72,42.61,42.61,0,0,1-1.71,6.44A45.29,45.29,0,0,1,57.64,77a25.37,25.37,0,0,1-2.86,4.87,25,25,0,0,1-5.44,5.29,18.74,18.74,0,0,1-6.43,3.29,17.6,17.6,0,0,1-8.3.14,27.7,27.7,0,0,1-7.72-2.28,21.23,21.23,0,0,1-7.73-6.58c-2.08-2.55-2.9-5.05-4-8.45a42.09,42.09,0,0,1-1.71-7.86,33.41,33.41,0,0,1-.43-9,23.86,23.86,0,0,1,.63-3.51l-.16.08c-.5.23-1.65.72-2.71,1.14-4,1.59-5.34,1.8-5.87,1.86-1.31.17-3.72.48-4.29-.57-.44-.8.52-2,1.29-3.29a15.47,15.47,0,0,1,4.72-4.72,56.09,56.09,0,0,1,6-4.29,28.4,28.4,0,0,1,6.63-2.47,9.63,9.63,0,0,0,1-3.25c.63-4.24-1.43-4.4-1.14-9.45a19.48,19.48,0,0,1,5-12,19,19,0,0,1,9.72-5.58,18.57,18.57,0,0,1,9.16.28,17.66,17.66,0,0,1,7.3,4.3,15,15,0,0,1,4.29,7.15c1.13,4.84-1.4,7.23-.15,13.88a11,11,0,0,0,.86,2.86c1.49,3,4.21,4.15,7.16,5.72C64.87,45.82,74.44,50.93,73.81,54.29Z"/><path class="cls-4" d="M17.36,58.15a27.2,27.2,0,0,1,1.71-11.73c1.21-2.93,2.4-4,3.44-7.87A20.92,20.92,0,0,0,23.37,33c0-3-.7-3.38-.58-5.73a13,13,0,0,1,2.44-6.72,13.81,13.81,0,0,1,6.15-4.86,16.18,16.18,0,0,1,6.15-1.15,12.81,12.81,0,0,1,6,.72,11.77,11.77,0,0,1,4.29,3.29,14.27,14.27,0,0,1,3.86,6.86c1,5.08-2.6,7.25-1,11.45.59,1.55,1,1,2.72,4a27.12,27.12,0,0,1,3,7.44A29.87,29.87,0,0,1,57,55a46.3,46.3,0,0,1-.42,8.72,32,32,0,0,1-2.29,8.59,21.56,21.56,0,0,1-4.87,7.44,16.24,16.24,0,0,1-8.15,4.57,16.26,16.26,0,0,1-7.73-.43,19.63,19.63,0,0,1-7.44-3.72C22.17,77,20.79,73,19.36,68.88A35.67,35.67,0,0,1,17.36,58.15Z"/><circle class="cls-5" cx="30.71" cy="25.12" r="2.67"/><circle class="cls-6" cx="44.08" cy="25.12" r="2.67"/><path class="cls-7" d="M36.55,27.64c1.75.06,3,1.61,3.68,2.63A5.6,5.6,0,0,1,41,33.54a3.55,3.55,0,0,1-.9,2.23,4.18,4.18,0,0,1-3.36,1A4.66,4.66,0,0,1,33,35.11a4.35,4.35,0,0,1-.53-3.38C32.88,29.83,34.53,27.56,36.55,27.64Z"/><path class="cls-8" d="M37.52,26.72c1.76.07,3,1.62,3.69,2.64A5.76,5.76,0,0,1,42,32.63a3.58,3.58,0,0,1-.91,2.23,4.15,4.15,0,0,1-3.35,1A4.67,4.67,0,0,1,34,34.2a4.28,4.28,0,0,1-.52-3.38C33.86,28.92,35.5,26.65,37.52,26.72Z"/><path class="cls-9" d="M22.78,14.8C21.49,12.77,24.13,9,25.53,7a15.35,15.35,0,0,1,4.15-4.29A14.33,14.33,0,0,1,35.17.47,14.58,14.58,0,0,1,39.32.33,14.39,14.39,0,0,1,44.55,1.8a14.54,14.54,0,0,1,5.29,4.89c1,1.42,3.09,4.46,2.88,8.31-.06,1-.15,2.34-1.07,2.94s-2.43-.14-4.42-.8c-2.52-.83-5.16-.8-10.45-.74-4.69.06-6.23.14-6.23.14a14.82,14.82,0,0,1-4-.14C24.82,16.07,23.42,15.8,22.78,14.8Z"/><path class="cls-10" d="M22.71,19a2.17,2.17,0,0,1-1.87-1.27,4.52,4.52,0,0,1-.49-3.3,6.25,6.25,0,0,1,.73-2.06,6.58,6.58,0,0,1,1.35-1.68H53.32a8.13,8.13,0,0,1,.87,1.68,8.66,8.66,0,0,1,.53,2.21,7.24,7.24,0,0,1,.35,1.8A7.37,7.37,0,0,1,55,18.14l-.69,1.48Z"/><path class="cls-11" d="M22.07,48.54c-.78.69,0,1.77-1.15,3.17a6.81,6.81,0,0,1-2.57,1.77c-1.42.63-2.12.48-2.25.91-.24.78,1.83,2.08,2.8,2.69a21.63,21.63,0,0,0,4.88,2.19,21.7,21.7,0,0,0,4.39,1c1.88.22,2.19,0,2.32-.12.67-.62.13-1.79-.12-5.25a17.5,17.5,0,0,0-.12-2.26C29.29,49.27,23.67,47.12,22.07,48.54Z"/><path class="cls-12" d="M18.54,41c2.1,1.58,4.45,2.81,6.65,4.27,1.64,1.09,3.7,1.32,7.8,1.76A25.06,25.06,0,0,0,41.47,47a23.08,23.08,0,0,0,6.4-2.38c3.44-1.81,5.16-2.72,6.1-4.14a2.94,2.94,0,0,1,1.65-1.35,1.55,1.55,0,0,1,1.46.31c.37.42.2,1.1-.12,2.2a34.39,34.39,0,0,1-1.16,3.72c-.73,1.33-1.93,2.39-4.63,3.72a35,35,0,0,1-10.92,3.23A38.17,38.17,0,0,1,30.31,52c-5.09-.67-7.45-1.82-8-2.13-3.54-1.8-4.69-3.79-5.13-4.7-.22-.47-1.09-2.31-.36-3.53.08-.14.49-.83,1.1-.86A1,1,0,0,1,18.54,41Z"/><path class="cls-13" d="M19.39,37.93c1.37-.81,3,1,6.53,2.25,2.54.91,4.74,1,9.15,1.1,4.6.13,6.9.2,8.9-.49A66.53,66.53,0,0,0,53.49,37c.27-.15,1.09-.62,1.58-.3.67.42.34,2,.31,2.13a4.55,4.55,0,0,1-1.16,2.13,21.58,21.58,0,0,1-6.65,4.58A34.15,34.15,0,0,1,36.9,47.81a29.58,29.58,0,0,1-7.5-.37,24.81,24.81,0,0,1-6.9-2.38c-2.2-1.15-3.65-1.93-4.08-3.54C18.09,40.29,18.35,38.54,19.39,37.93Z"/></g></g></svg>