<svg xmlns="http://www.w3.org/2000/svg" xmlns:xlink="http://www.w3.org/1999/xlink" width="75px" height="101px" viewBox="0 0 74.34 95.89"><defs><style>.cls-1,.cls-2{stroke:#6a4009;}.cls-1,.cls-10,.cls-11,.cls-12,.cls-13,.cls-2,.cls-3,.cls-9{stroke-miterlimit:10;}.cls-1,.cls-10,.cls-11,.cls-12,.cls-13,.cls-2,.cls-9{stroke-width:0.5px;}.cls-1{fill:url(#Dégradé_sans_nom_21);}.cls-2{fill:url(#Dégradé_sans_nom_25);}.cls-3{stroke:#1d1d1b;fill:url(#Dégradé_sans_nom_5);}.cls-4{fill:url(#Dégradé_sans_nom_11);}.cls-5{fill:url(#Dégradé_sans_nom_15);}.cls-6{fill:url(#Dégradé_sans_nom_15-2);}.cls-7{fill:#c6c6c6;}.cls-8{fill:url(#Dégradé_sans_nom_21-2);}.cls-10,.cls-11,.cls-12,.cls-13,.cls-9{stroke:#194a22;}.cls-9{fill:url(#Dégradé_sans_nom_59);}.cls-10{fill:url(#Dégradé_sans_nom_59-2);}.cls-11{fill:url(#Dégradé_sans_nom_59-3);}.cls-12{fill:url(#Dégradé_sans_nom_59-4);}.cls-13{fill:#1d1d1b;}</style><radialGradient id="Dégradé_sans_nom_21" cx="27.35" cy="88.19" r="6.78" gradientUnits="userSpaceOnUse"><stop offset="0" stop-color="#fff"/><stop offset="0.08" stop-color="#fef7ec"/><stop offset="0.26" stop-color="#fce2bb"/><stop offset="0.5" stop-color="#f8c06d"/><stop offset="0.8" stop-color="#f39302"/><stop offset="0.81" stop-color="#f39200"/></radialGradient><radialGradient id="Dégradé_sans_nom_25" cx="-212.36" cy="82.4" r="6.78" gradientTransform="matrix(-1, -0.05, -0.05, 1, -160.84, -4.03)" gradientUnits="userSpaceOnUse"><stop offset="0.05" stop-color="#fff"/><stop offset="0.13" stop-color="#fef7ec"/><stop offset="0.29" stop-color="#fce2bb"/><stop offset="0.52" stop-color="#f8c06d"/><stop offset="0.8" stop-color="#f39302"/><stop offset="0.81" stop-color="#f39200"/></radialGradient><radialGradient id="Dégradé_sans_nom_5" cx="37.17" cy="45.02" r="40.62" gradientTransform="translate(0 -2.4) scale(1 1.05)" gradientUnits="userSpaceOnUse"><stop offset="0.04" stop-color="#fff"/><stop offset="0.24" stop-color="#b5b5b5"/><stop offset="0.47" stop-color="#686868"/><stop offset="0.66" stop-color="#303030"/><stop offset="0.8" stop-color="#0d0d0d"/><stop offset="0.87"/></radialGradient><radialGradient id="Dégradé_sans_nom_11" cx="37.17" cy="44.07" r="23.02" gradientTransform="translate(0.27 -30.51) rotate(0.21) scale(1 1.69)" gradientUnits="userSpaceOnUse"><stop offset="0.68" stop-color="#fff"/><stop offset="0.68" stop-color="#fdfdfd"/><stop offset="0.83" stop-color="#b2b2b2"/></radialGradient><radialGradient id="Dégradé_sans_nom_15" cx="30.71" cy="19.64" r="2.67" gradientUnits="userSpaceOnUse"><stop offset="0.15" stop-color="#fff"/><stop offset="0.22" stop-color="#ddd"/><stop offset="0.33" stop-color="#a3a3a2"/><stop offset="0.45" stop-color="#737372"/><stop offset="0.55" stop-color="#4e4e4c"/><stop offset="0.65" stop-color="#333331"/><stop offset="0.74" stop-color="#232321"/><stop offset="0.81" stop-color="#1d1d1b"/></radialGradient><radialGradient id="Dégradé_sans_nom_15-2" cx="44.08" cy="19.64" r="2.67" xlink:href="#Dégradé_sans_nom_15"/><radialGradient id="Dégradé_sans_nom_21-2" cx="37.66" cy="25.82" r="4.45" xlink:href="#Dégradé_sans_nom_21"/><radialGradient id="Dégradé_sans_nom_59" cx="37.66" cy="37.75" fx="52.37818877365477" r="21.23" gradientTransform="matrix(1, -0.06, 0.02, 0.42, -0.87, 24.31)" gradientUnits="userSpaceOnUse"><stop offset="0.12" stop-color="#95c11f"/><stop offset="0.23" stop-color="#66b827"/><stop offset="0.35" stop-color="#3aaf2f"/><stop offset="0.45" stop-color="#1aa934"/><stop offset="0.54" stop-color="#07a538"/><stop offset="0.6" stop-color="#00a439"/><stop offset="0.91" stop-color="#063"/></radialGradient><radialGradient id="Dégradé_sans_nom_59-2" cx="36.41" cy="40.98" fx="48.687342096866175" r="17.71" gradientTransform="matrix(1, -0.06, 0.02, 0.42, -0.96, 26.12)" xlink:href="#Dégradé_sans_nom_59"/><radialGradient id="Dégradé_sans_nom_59-3" cx="18.6" cy="21.36" fx="18.60185186828312" r="7.68" gradientTransform="matrix(1, -0.06, 0.02, 0.42, -0.5, 13.59)" xlink:href="#Dégradé_sans_nom_59"/><radialGradient id="Dégradé_sans_nom_59-4" cx="54.41" cy="12.64" fx="54.40725983523407" r="8.96" gradientTransform="matrix(1, -0.06, 0.02, 0.42, -0.22, 10.64)" xlink:href="#Dégradé_sans_nom_59"/></defs><g id="Calque_2" data-name="Calque 2"><g id="Calque_1-2" data-name="Calque 1"><path class="cls-1" d="M25.42,81.85c-.75.85.57,2-.09,3.74-.87,2.27-3.75,2-4.49,4.29a3.62,3.62,0,0,0,.38,2.9c.76,1.2,2.23,1.44,5.14,1.87,3.61.53,5.52.78,6.72-.47A3.61,3.61,0,0,0,34,91.84c0-1.78-1.61-2.17-2.14-4.29-.47-1.85.54-2.36,0-3.65C30.9,81.61,26.55,80.58,25.42,81.85Z"/><path class="cls-2" d="M49.37,82.67c.71.88-.67,2-.09,3.73.75,2.32,3.64,2.17,4.26,4.52A3.56,3.56,0,0,1,53,93.79c-.82,1.17-2.3,1.33-5.22,1.61-3.63.35-5.55.5-6.69-.8a3.65,3.65,0,0,1-.82-2.38c.1-1.78,1.72-2.1,2.36-4.19.56-1.82-.42-2.38.18-3.64C43.92,82.15,48.31,81.34,49.37,82.67Z"/><path class="cls-3" d="M73.81,48.82a2.67,2.67,0,0,1-1.43,1.71c-1.2.6-2.42-.05-4.72-.85-3.23-1.13-5.76-2-6.58-1.15-.53.56,0,1.41.42,3.72a21.8,21.8,0,0,1,0,6.72,42.61,42.61,0,0,1-1.71,6.44,45.29,45.29,0,0,1-2.15,6.15,25.37,25.37,0,0,1-2.86,4.87,25,25,0,0,1-5.44,5.29A18.74,18.74,0,0,1,42.91,85a17.6,17.6,0,0,1-8.3.14,27.73,27.73,0,0,1-7.72-2.29,21.22,21.22,0,0,1-7.73-6.57c-2.08-2.55-2.9-5.05-4-8.45A42.09,42.09,0,0,1,13.44,60,33.41,33.41,0,0,1,13,51a23.86,23.86,0,0,1,.63-3.51l-.16.08c-.5.23-1.65.72-2.71,1.14-4,1.59-5.34,1.8-5.87,1.86C3.59,50.7,1.18,51,.61,50c-.44-.8.52-2,1.29-3.29A15.47,15.47,0,0,1,6.62,42a56.09,56.09,0,0,1,6-4.29,28.4,28.4,0,0,1,6.63-2.47,9.63,9.63,0,0,0,1-3.25c.63-4.24-1.43-4.4-1.14-9.45a19.48,19.48,0,0,1,5-12A19,19,0,0,1,33.89,4.9a18.57,18.57,0,0,1,9.16.28,17.66,17.66,0,0,1,7.3,4.3,15,15,0,0,1,4.29,7.15c1.13,4.84-1.4,7.23-.15,13.88a11,11,0,0,0,.86,2.86c1.49,3,4.21,4.15,7.16,5.72C64.87,40.35,74.44,45.46,73.81,48.82Z"/><path class="cls-4" d="M17.36,52.68A27.18,27.18,0,0,1,19.07,41c1.21-2.94,2.4-4,3.44-7.87a20.94,20.94,0,0,0,.86-5.58c0-3-.7-3.38-.58-5.72a13.05,13.05,0,0,1,2.44-6.73,13.81,13.81,0,0,1,6.15-4.86A16.58,16.58,0,0,1,37.53,9a12.94,12.94,0,0,1,6,.72,11.77,11.77,0,0,1,4.29,3.29,14.26,14.26,0,0,1,3.86,6.87c1,5.07-2.6,7.24-1,11.44.59,1.56,1,1,2.72,4a27.23,27.23,0,0,1,3,7.43A29.87,29.87,0,0,1,57,49.53a46.4,46.4,0,0,1-.42,8.73,31.88,31.88,0,0,1-2.29,8.58,21.56,21.56,0,0,1-4.87,7.44,16.32,16.32,0,0,1-8.15,4.58,16.39,16.39,0,0,1-7.73-.43,20,20,0,0,1-7.44-3.72c-3.91-3.23-5.29-7.21-6.72-11.3A35.77,35.77,0,0,1,17.36,52.68Z"/><circle class="cls-5" cx="30.71" cy="19.64" r="2.67"/><circle class="cls-6" cx="44.08" cy="19.64" r="2.67"/><path class="cls-7" d="M36.55,22.16c1.75.06,3,1.61,3.68,2.64A5.56,5.56,0,0,1,41,28.07a3.55,3.55,0,0,1-.9,2.22,4.18,4.18,0,0,1-3.36,1A4.6,4.6,0,0,1,33,29.63a4.34,4.34,0,0,1-.53-3.38C32.88,24.35,34.53,22.08,36.55,22.16Z"/><path class="cls-8" d="M37.52,21.25c1.76.06,3,1.61,3.69,2.64A5.71,5.71,0,0,1,42,27.16a3.58,3.58,0,0,1-.91,2.22,4.15,4.15,0,0,1-3.35,1A4.64,4.64,0,0,1,34,28.72a4.28,4.28,0,0,1-.52-3.38C33.86,23.44,35.5,21.17,37.52,21.25Z"/><path class="cls-9" d="M21.3,39.64a6,6,0,0,1-2.21-2.27,6.31,6.31,0,0,1-.56-3.2c0-1.34,0-3,1.13-3.76.53-.36,1.18-.4,2.56-.14a22.55,22.55,0,0,1,5.26,1.84c1,.42,3.32.54,7.88.78A51.41,51.41,0,0,0,42,33c3.2-.29,4.8-.44,6.82-1.28,1.63-.69,2.79-1.51,4.33-1.14a4.24,4.24,0,0,1,2.06,1.28,5.51,5.51,0,0,1,1.49,4.48c-.32,2.1-2.11,3.3-4.47,4.83a24.37,24.37,0,0,1-8.17,3.55,28.47,28.47,0,0,1-14.63-.71C26.61,43.13,24.84,42,21.3,39.64Z"/><path class="cls-10" d="M38.49,32.25c-1.27.66-1.19,1.15-3.9,4.4a36.46,36.46,0,0,1-5.19,5.54c-3.78,3-7.07,3.31-7,4.48,0,.53.75.8,3.55,1.78,7.35,2.56,8.08,2.65,9.09,2.48,1.5-.25,2.77-1.14,5.33-2.91s4.12-2.86,5.26-4.83c1.3-2.26.44-2.86,1.77-6.11,1.48-3.61,3.41-5,2.84-5.82-.38-.57-1.43-.15-4.54.21C40.87,32,40.23,31.35,38.49,32.25Z"/><polygon class="cls-11" points="15.8 15.82 15.8 27.78 18.17 28.27 21.4 27.4 21.4 15.82 18.6 14.45 15.8 15.82"/><polygon class="cls-12" points="49.3 9.72 55.9 19.68 57.77 18.81 59.51 17.19 59.51 15.45 56.77 8.6 54.41 5.61 49.3 9.1 49.3 9.72"/><path class="cls-13" d="M21.82,11.07c.77-1.93,2.11-3,4.09-4.55A19.18,19.18,0,0,1,33.05,3a18.58,18.58,0,0,1,6.23-.52,13.92,13.92,0,0,1,6,1.69c3.54,2.05,4.33,5.08,6.16,4.73a1.78,1.78,0,0,0,1.43-1.29c.09-.64-.52-1.24-2.27-2.54a28.33,28.33,0,0,0-4.48-3A20.08,20.08,0,0,0,40.19.42a20.36,20.36,0,0,0-17,5.65,16.69,16.69,0,0,0-3.57,4.67c-.11.23-.44,1.11-1.1,2.86s-.82,2.27-.58,2.66a2,2,0,0,0,2.46.45C21.71,16,20.74,13.78,21.82,11.07Z"/></g></g></svg>