<svg xmlns="http://www.w3.org/2000/svg" xmlns:xlink="http://www.w3.org/1999/xlink" width="75px" height="101px" viewBox="0 0 74.34 103.22"><defs><style>.cls-1,.cls-2{stroke:#6a4009;}.Style-graphique-2,.cls-1,.cls-10,.cls-11,.cls-12,.cls-2,.cls-3,.cls-9{stroke-miterlimit:10;}.Style-graphique-2,.cls-1,.cls-10,.cls-11,.cls-12,.cls-2,.cls-9{stroke-width:0.5px;}.cls-1{fill:url(#Dégradé_sans_nom_21);}.cls-2{fill:url(#Dégradé_sans_nom_25);}.cls-3{stroke:#1d1d1b;fill:url(#Dégradé_sans_nom_5);}.cls-4{fill:url(#Dégradé_sans_nom_11);}.cls-5{fill:url(#Dégradé_sans_nom_15);}.cls-6{fill:url(#Dégradé_sans_nom_15-2);}.cls-7{fill:#c6c6c6;}.cls-8{fill:url(#Dégradé_sans_nom_21-2);}.Style-graphique-2,.cls-10,.cls-11,.cls-12,.cls-9{stroke:#194a22;}.cls-9{fill:url(#Dégradé_sans_nom_59);}.cls-10{fill:url(#Dégradé_sans_nom_22);}.Style-graphique-2{fill:url(#Dégradé_sans_nom_22-2);}.cls-11{fill:url(#Dégradé_sans_nom_59-2);}.cls-12{fill:url(#Dégradé_sans_nom_59-3);}</style><radialGradient id="Dégradé_sans_nom_21" cx="27.35" cy="95.52" r="6.78" gradientUnits="userSpaceOnUse"><stop offset="0" stop-color="#fff"/><stop offset="0.08" stop-color="#fef7ec"/><stop offset="0.26" stop-color="#fce2bb"/><stop offset="0.5" stop-color="#f8c06d"/><stop offset="0.8" stop-color="#f39302"/><stop offset="0.81" stop-color="#f39200"/></radialGradient><radialGradient id="Dégradé_sans_nom_25" cx="-389.56" cy="85.29" r="6.78" gradientTransform="matrix(-1, -0.05, -0.05, 1, -337.67, -8.46)" gradientUnits="userSpaceOnUse"><stop offset="0.05" stop-color="#fff"/><stop offset="0.13" stop-color="#fef7ec"/><stop offset="0.29" stop-color="#fce2bb"/><stop offset="0.52" stop-color="#f8c06d"/><stop offset="0.8" stop-color="#f39302"/><stop offset="0.81" stop-color="#f39200"/></radialGradient><radialGradient id="Dégradé_sans_nom_5" cx="37.17" cy="52.35" r="40.62" gradientTransform="translate(0 -2.79) scale(1 1.05)" gradientUnits="userSpaceOnUse"><stop offset="0.04" stop-color="#fff"/><stop offset="0.24" stop-color="#b5b5b5"/><stop offset="0.47" stop-color="#686868"/><stop offset="0.66" stop-color="#303030"/><stop offset="0.8" stop-color="#0d0d0d"/><stop offset="0.87"/></radialGradient><radialGradient id="Dégradé_sans_nom_11" cx="37.17" cy="51.4" r="23.02" gradientTransform="translate(0.31 -35.57) rotate(0.21) scale(1 1.69)" gradientUnits="userSpaceOnUse"><stop offset="0.68" stop-color="#fff"/><stop offset="0.68" stop-color="#fdfdfd"/><stop offset="0.83" stop-color="#b2b2b2"/></radialGradient><radialGradient id="Dégradé_sans_nom_15" cx="30.71" cy="26.97" r="2.67" gradientUnits="userSpaceOnUse"><stop offset="0.15" stop-color="#fff"/><stop offset="0.22" stop-color="#ddd"/><stop offset="0.33" stop-color="#a3a3a2"/><stop offset="0.45" stop-color="#737372"/><stop offset="0.55" stop-color="#4e4e4c"/><stop offset="0.65" stop-color="#333331"/><stop offset="0.74" stop-color="#232321"/><stop offset="0.81" stop-color="#1d1d1b"/></radialGradient><radialGradient id="Dégradé_sans_nom_15-2" cx="44.08" cy="26.97" r="2.67" xlink:href="#Dégradé_sans_nom_15"/><radialGradient id="Dégradé_sans_nom_21-2" cx="37.66" cy="33.15" r="4.45" xlink:href="#Dégradé_sans_nom_21"/><radialGradient id="Dégradé_sans_nom_59" cx="42.31" cy="7.04" fx="56.8754654562375" r="21.01" gradientTransform="matrix(1, -0.06, 0.02, 0.42, -0.1, 6.64)" gradientUnits="userSpaceOnUse"><stop offset="0.12" stop-color="#95c11f"/><stop offset="0.23" stop-color="#66b827"/><stop offset="0.35" stop-color="#3aaf2f"/><stop offset="0.45" stop-color="#1aa934"/><stop offset="0.54" stop-color="#07a538"/><stop offset="0.6" stop-color="#00a439"/><stop offset="0.91" stop-color="#063"/></radialGradient><radialGradient id="Dégradé_sans_nom_22" cx="36.86" cy="15.32" fx="50.737290949520656" r="20.01" gradientTransform="matrix(1, -0.06, 0.02, 0.42, -0.32, 11.15)" gradientUnits="userSpaceOnUse"><stop offset="0.12" stop-color="#fff"/><stop offset="0.35" stop-color="#f4f4f4"/><stop offset="0.6" stop-color="#ededed"/><stop offset="0.91" stop-color="#dadada"/></radialGradient><radialGradient id="Dégradé_sans_nom_22-2" cx="64.07" cy="11.19" fx="64.06590456344748" r="7.61" gradientTransform="matrix(1, -0.06, 0.02, 0.42, -0.16, 10.37)" xlink:href="#Dégradé_sans_nom_22"/><radialGradient id="Dégradé_sans_nom_59-2" cx="36.95" cy="44.13" fx="51.87229648694816" r="21.51" gradientTransform="matrix(1, -0.06, 0.02, 0.42, -1.03, 28)" xlink:href="#Dégradé_sans_nom_59"/><radialGradient id="Dégradé_sans_nom_59-3" cx="23.57" cy="53.44" fx="36.715792782736244" r="18.95" gradientTransform="matrix(1, -0.06, 0.02, 0.42, -1.29, 32.63)" xlink:href="#Dégradé_sans_nom_59"/></defs><g id="Calque_2" data-name="Calque 2"><g id="Calque_1-2" data-name="Calque 1"><path class="cls-1" d="M25.42,89.18c-.75.84.57,2-.09,3.73-.87,2.28-3.75,2-4.49,4.3a3.62,3.62,0,0,0,.38,2.9c.76,1.2,2.23,1.44,5.14,1.87,3.61.53,5.52.78,6.72-.47A3.61,3.61,0,0,0,34,99.17c0-1.78-1.61-2.17-2.14-4.29-.47-1.85.54-2.36,0-3.65C30.9,88.93,26.55,87.91,25.42,89.18Z"/><path class="cls-2" d="M49.37,90c.71.89-.67,2-.09,3.74.75,2.32,3.64,2.17,4.26,4.52a3.56,3.56,0,0,1-.52,2.87c-.82,1.16-2.3,1.33-5.22,1.61-3.63.35-5.55.5-6.69-.81a3.64,3.64,0,0,1-.82-2.37c.1-1.79,1.72-2.1,2.36-4.19.56-1.82-.42-2.38.18-3.64C43.92,89.47,48.31,88.67,49.37,90Z"/><path class="cls-3" d="M73.81,56.14a2.67,2.67,0,0,1-1.43,1.71c-1.2.6-2.42-.05-4.72-.85-3.23-1.13-5.76-2-6.58-1.15-.53.56,0,1.41.42,3.72a21.8,21.8,0,0,1,0,6.72,42.61,42.61,0,0,1-1.71,6.44,45.29,45.29,0,0,1-2.15,6.15,25.37,25.37,0,0,1-2.86,4.87A25,25,0,0,1,49.34,89a18.74,18.74,0,0,1-6.43,3.29,17.6,17.6,0,0,1-8.3.14,27.7,27.7,0,0,1-7.72-2.28,21.23,21.23,0,0,1-7.73-6.58c-2.08-2.55-2.9-5-4-8.45a42.09,42.09,0,0,1-1.71-7.86,33.41,33.41,0,0,1-.43-9,23.86,23.86,0,0,1,.63-3.51l-.16.08c-.5.23-1.65.72-2.71,1.14-4,1.59-5.34,1.8-5.87,1.86-1.31.17-3.72.48-4.29-.57-.44-.8.52-2,1.29-3.29a15.47,15.47,0,0,1,4.72-4.72,56.09,56.09,0,0,1,6-4.29,28.4,28.4,0,0,1,6.63-2.47,9.63,9.63,0,0,0,1-3.25c.63-4.24-1.43-4.4-1.14-9.45a19.48,19.48,0,0,1,5-12,19,19,0,0,1,9.72-5.58,18.57,18.57,0,0,1,9.16.28,17.66,17.66,0,0,1,7.3,4.3A15,15,0,0,1,54.64,24c1.13,4.84-1.4,7.23-.15,13.88a11,11,0,0,0,.86,2.86c1.49,3,4.21,4.15,7.16,5.72C64.87,47.67,74.44,52.78,73.81,56.14Z"/><path class="cls-4" d="M17.36,60a27.2,27.2,0,0,1,1.71-11.73c1.21-2.93,2.4-4,3.44-7.86a21.08,21.08,0,0,0,.86-5.58c0-3-.7-3.38-.58-5.73a13,13,0,0,1,2.44-6.72,13.81,13.81,0,0,1,6.15-4.86,16.18,16.18,0,0,1,6.15-1.15,12.94,12.94,0,0,1,6,.72,11.77,11.77,0,0,1,4.29,3.29,14.27,14.27,0,0,1,3.86,6.86c1,5.08-2.6,7.25-1,11.45.59,1.55,1,1,2.72,4a27.24,27.24,0,0,1,3,7.44A29.87,29.87,0,0,1,57,56.86a46.26,46.26,0,0,1-.42,8.72,31.93,31.93,0,0,1-2.29,8.59,21.56,21.56,0,0,1-4.87,7.44,16.24,16.24,0,0,1-8.15,4.57,16.41,16.41,0,0,1-7.73-.42A20,20,0,0,1,26.08,82c-3.91-3.23-5.29-7.21-6.72-11.31A35.67,35.67,0,0,1,17.36,60Z"/><circle class="cls-5" cx="30.71" cy="26.97" r="2.67"/><circle class="cls-6" cx="44.08" cy="26.97" r="2.67"/><path class="cls-7" d="M36.55,29.49c1.75.06,3,1.61,3.68,2.63A5.6,5.6,0,0,1,41,35.39a3.55,3.55,0,0,1-.9,2.23,4.18,4.18,0,0,1-3.36,1A4.63,4.63,0,0,1,33,37a4.34,4.34,0,0,1-.53-3.38C32.88,31.68,34.53,29.41,36.55,29.49Z"/><path class="cls-8" d="M37.52,28.58c1.76.06,3,1.61,3.69,2.63A5.76,5.76,0,0,1,42,34.48a3.58,3.58,0,0,1-.91,2.23,4.15,4.15,0,0,1-3.35,1A4.67,4.67,0,0,1,34,36.05a4.28,4.28,0,0,1-.52-3.38C33.86,30.77,35.5,28.5,37.52,28.58Z"/><path class="cls-9" d="M23.24,13.69c-.74-.73,1.13-3.82,2.19-5.31a19.57,19.57,0,0,1,6.45-5.72,20.24,20.24,0,0,1,9-2.39c3.5-.16,6,.56,9.36,1.56a32.3,32.3,0,0,1,9.88,5.31c.64.5,1.53,1.25,1.36,1.87s-.91.93-4.68,1a52.17,52.17,0,0,1-7.18-.31,60.63,60.63,0,0,0-11.75,0,30.9,30.9,0,0,0-8.63,1.66C25.74,12.71,23.87,14.3,23.24,13.69Z"/><path class="cls-10" d="M23.81,12.69c-1.65,1.42-3.53.16-4.48,1.25-1.18,1.36.24,5,2.5,7.07.74.67,2.22,2,3.74,1.67s1.81-2.29,3.54-2.6c.91-.16,1.2.31,3,.93a10.73,10.73,0,0,0,5.61.84c2.43-.51,2.81-2.22,4.58-2,1.2.16,1.18,1,2.91,1.77a7.09,7.09,0,0,0,5.1.41,6.68,6.68,0,0,0,3.74-3.43c1.16-2.41,1-5.81-.73-7.18A8.12,8.12,0,0,0,50.4,9.5a17.11,17.11,0,0,0-4.34-1.38c-2.13-.51-2.9,1.26-5.72,1-1.59-.13-1.31-.69-3.53-1-1.25-.2-3.69-.59-5.52.72-.76.56-.57.81-1.24,1.15-1.69.86-3.07-.63-4.48.1C24.5,10.65,25,11.69,23.81,12.69Z"/><path class="Style-graphique-2" d="M62.44,6.59c-.83.34-1.88.76-2.12,1.65-.16.57.15.83-.09,1.39-.32.72-1,.61-1.26,1.26-.35.81.35,1.83.43,1.95.49.7.85.54,1.57,1.35s.51,1.07,1.08,1.56a3.29,3.29,0,0,0,5-1.17c.2-.68-.16-1,.17-1.56s1-.41,1.52-1A2.48,2.48,0,0,0,69,9.32c-.34-.57-.68-.43-1.48-1.17-1-.94-.78-1.47-1.48-1.91C65,5.57,63.46,6.18,62.44,6.59Z"/><path class="cls-11" d="M54.76,46.47c-.08.11-.18.22-.28.34a8.81,8.81,0,0,1-2.85,2.12,21.6,21.6,0,0,1-4.94,1.66l-.89.19a37.7,37.7,0,0,1-4.33.63,34.55,34.55,0,0,1-6.93-.11,51.33,51.33,0,0,1-6-1.07c-1.36-.32-2.72-.66-4.1-1-.48-.12-1-.25-1.46-.4a9.41,9.41,0,0,1-3.13-1.57,6,6,0,0,1-1.3-1.43c-.23-.35-1.89-3-.65-5.62a5.32,5.32,0,0,1,2.72-2.51l.29-.1a6.08,6.08,0,0,1,4,.48l.11,0a23.26,23.26,0,0,0,2.59.81,27.69,27.69,0,0,0,4.56.73c1.46.14,2.91.18,4.36.23l1,0a24.72,24.72,0,0,0,5.12-.26A14.51,14.51,0,0,0,44.89,39s.58-.22,1.47-.52,2.39-.79,4-1.25l.2-.06c1.74-.49,2.37-.57,3.06-.33,1.8.62,2.66,2.91,2.82,4.51A7.41,7.41,0,0,1,54.76,46.47Z"/><path class="Style-graphique-2" d="M46.69,50.59l-.89.19a37.7,37.7,0,0,1-4.33.63c-2.26-2.9-4.84-7.37-3.94-11.51a24.72,24.72,0,0,0,5.12-.26,29.63,29.63,0,0,0,2,6.92A34.75,34.75,0,0,0,46.69,50.59Z"/><path class="Style-graphique-2" d="M54.48,46.81a8.81,8.81,0,0,1-2.85,2.12,55.66,55.66,0,0,1-3-5.48c-1.1-2.21-1.82-3.79-2.26-5,1-.33,2.39-.79,4-1.25l.2-.06a17.13,17.13,0,0,0,2,7A14.61,14.61,0,0,0,54.48,46.81Z"/><path class="Style-graphique-2" d="M34.54,51.3a51.33,51.33,0,0,1-6-1.07,30.77,30.77,0,0,1-1-6.26c0-2-.05-3.72.05-5.06a27.69,27.69,0,0,0,4.56.73,11.45,11.45,0,0,0-.77,3.48C31.23,46.69,33.23,49.29,34.54,51.3Z"/><path class="Style-graphique-2" d="M22.86,47.18c0,.57.05,1.12.11,1.63a9.41,9.41,0,0,1-3.13-1.57c.06-1.23.13-2.81.17-4.9a30.26,30.26,0,0,1,.6-4.66l.29-.1a6.08,6.08,0,0,1,4,.48C24.19,40.24,22.78,43.18,22.86,47.18Z"/><path class="cls-12" d="M34.65,43.77h0C34.11,45.3,32.69,47,32,50c0,.18-.08.36-.11.55a20.7,20.7,0,0,0-.2,4.18c0,.82.07,1.76.12,2.85,0,.79.08,1.47.12,2.06s.09,1.28.1,1.8a5.66,5.66,0,0,1-.55,3,7.08,7.08,0,0,1-1,1.5,6.11,6.11,0,0,1-2.52,1.77c-1.39.49-2.52.26-4.77-.2-3.11-.64-2.77-1.24-6.54-2.29-2.12-.59-3.57-.77-4.12-2a2.31,2.31,0,0,1-.13-1.57,1.72,1.72,0,0,1,.78-1c1-.68,2.82-.81,4.56-1.76a7,7,0,0,0,1.59-1.17c.11-.11.21-.21.3-.32a7.74,7.74,0,0,0,1.34-2.08,8.05,8.05,0,0,0,.52-1.59,5.3,5.3,0,0,0,.05-2.09,22.41,22.41,0,0,1-.18-3.14c0-.45,0-.85,0-1.22a10,10,0,0,1,.63-3.5l.05-.11a7.41,7.41,0,0,1,1.89-2.55,7.73,7.73,0,0,1,2.68-1.44,11.17,11.17,0,0,1,3.86-.79,4.68,4.68,0,0,1,2.35.66,4.19,4.19,0,0,1,1.83,2A2.93,2.93,0,0,1,34.65,43.77Z"/><path class="Style-graphique-2" d="M31.47,64.42a7.08,7.08,0,0,1-1,1.5,49.76,49.76,0,0,1-11.24-2.67,53.76,53.76,0,0,1-6.06-2.57c1-.68,2.82-.81,4.56-1.76a19.19,19.19,0,0,0,2.91,2.13c3.74,2.06,7.82,1,11.39.36A5.66,5.66,0,0,1,31.47,64.42Z"/><path class="Style-graphique-2" d="M31.92,59.61a43.6,43.6,0,0,1-12.31-2.18A7.74,7.74,0,0,0,21,55.35c3.64,1.07,7.46-.13,10.73-.65,0,.82.07,1.76.12,2.85C31.83,58.34,31.88,59,31.92,59.61Z"/><path class="Style-graphique-2" d="M34.64,43.77C34.11,45.3,32.69,47,32,50c0,.18-.08.36-.11.55l-.4.08a36,36,0,0,1-10,1.07,22.41,22.41,0,0,1-.18-3.14c0-.45,0-.85,0-1.22a4.34,4.34,0,0,0,.48.14C26.84,48.67,31.21,45.45,34.64,43.77Z"/><path class="Style-graphique-2" d="M30.48,38.92c-2.87,2.24-4.41,3.41-6.25,4.14a19.4,19.4,0,0,1-2.23.75l.05-.11a7.41,7.41,0,0,1,1.89-2.55,7.73,7.73,0,0,1,2.68-1.44A11.17,11.17,0,0,1,30.48,38.92Z"/></g></g></svg>