<svg xmlns="http://www.w3.org/2000/svg" xmlns:xlink="http://www.w3.org/1999/xlink" width="75px" height="101px" viewBox="0 0 80.55 100.57"><defs><style>.cls-1,.cls-2{stroke:#6a4009;}.Style-graphique-2,.Style-graphique-3,.cls-1,.cls-2,.cls-3{stroke-miterlimit:10;}.Style-graphique-2,.Style-graphique-3,.cls-1,.cls-2{stroke-width:0.5px;}.cls-1{fill:url(#Dégradé_sans_nom_21);}.cls-2{fill:url(#Dégradé_sans_nom_25);}.cls-3{stroke:#1d1d1b;fill:url(#Dégradé_sans_nom_5);}.cls-4{fill:url(#Dégradé_sans_nom_11);}.cls-5{fill:url(#Dégradé_sans_nom_15);}.cls-6{fill:url(#Dégradé_sans_nom_15-2);}.cls-7{fill:#c6c6c6;}.cls-8{fill:url(#Dégradé_sans_nom_21-2);}.Style-graphique-3{stroke:#111f15;fill:url(#Dégradé_sans_nom_40);}.Style-graphique-2{stroke:#194a22;fill:url(#Dégradé_sans_nom_22);}</style><radialGradient id="Dégradé_sans_nom_21" cx="30.2" cy="92.87" r="6.78" gradientUnits="userSpaceOnUse"><stop offset="0" stop-color="#fff"/><stop offset="0.08" stop-color="#fef7ec"/><stop offset="0.26" stop-color="#fce2bb"/><stop offset="0.5" stop-color="#f8c06d"/><stop offset="0.8" stop-color="#f39302"/><stop offset="0.81" stop-color="#f39200"/></radialGradient><radialGradient id="Dégradé_sans_nom_25" cx="-557.44" cy="78.36" r="6.78" gradientTransform="matrix(-1, -0.05, -0.05, 1, -502.85, -12.59)" gradientUnits="userSpaceOnUse"><stop offset="0.05" stop-color="#fff"/><stop offset="0.13" stop-color="#fef7ec"/><stop offset="0.29" stop-color="#fce2bb"/><stop offset="0.52" stop-color="#f8c06d"/><stop offset="0.8" stop-color="#f39302"/><stop offset="0.81" stop-color="#f39200"/></radialGradient><radialGradient id="Dégradé_sans_nom_5" cx="40.01" cy="49.69" r="40.62" gradientTransform="translate(0 -2.65) scale(1 1.05)" gradientUnits="userSpaceOnUse"><stop offset="0.04" stop-color="#fff"/><stop offset="0.24" stop-color="#b5b5b5"/><stop offset="0.47" stop-color="#686868"/><stop offset="0.66" stop-color="#303030"/><stop offset="0.8" stop-color="#0d0d0d"/><stop offset="0.87"/></radialGradient><radialGradient id="Dégradé_sans_nom_11" cx="40.01" cy="48.75" r="23.02" gradientTransform="translate(0.3 -33.75) rotate(0.21) scale(1 1.69)" gradientUnits="userSpaceOnUse"><stop offset="0.68" stop-color="#fff"/><stop offset="0.68" stop-color="#fdfdfd"/><stop offset="0.83" stop-color="#b2b2b2"/></radialGradient><radialGradient id="Dégradé_sans_nom_15" cx="33.55" cy="24.32" r="2.67" gradientUnits="userSpaceOnUse"><stop offset="0.15" stop-color="#fff"/><stop offset="0.22" stop-color="#ddd"/><stop offset="0.33" stop-color="#a3a3a2"/><stop offset="0.45" stop-color="#737372"/><stop offset="0.55" stop-color="#4e4e4c"/><stop offset="0.65" stop-color="#333331"/><stop offset="0.74" stop-color="#232321"/><stop offset="0.81" stop-color="#1d1d1b"/></radialGradient><radialGradient id="Dégradé_sans_nom_15-2" cx="46.93" cy="24.32" r="2.67" xlink:href="#Dégradé_sans_nom_15"/><radialGradient id="Dégradé_sans_nom_21-2" cx="40.5" cy="30.49" r="4.45" xlink:href="#Dégradé_sans_nom_21"/><radialGradient id="Dégradé_sans_nom_40" cx="40.5" cy="9.61" fx="56.125219574026936" r="22.53" gradientUnits="userSpaceOnUse"><stop offset="0.12" stop-color="#abc7ea"/><stop offset="0.34" stop-color="#5db5e7"/><stop offset="0.6" stop-color="#009fe3"/><stop offset="0.7" stop-color="#0d7bc6"/><stop offset="0.91" stop-color="#27348b"/></radialGradient><radialGradient id="Dégradé_sans_nom_22" cx="10.33" cy="66.37" r="6.59" gradientTransform="matrix(0.84, -0.05, 0.02, 0.37, 1, 26.15)" gradientUnits="userSpaceOnUse"><stop offset="0.12" stop-color="#fff"/><stop offset="0.35" stop-color="#f4f4f4"/><stop offset="0.6" stop-color="#ededed"/><stop offset="0.91" stop-color="#dadada"/></radialGradient></defs><g id="Calque_2" data-name="Calque 2"><g id="Calque_1-2" data-name="Calque 1"><path class="cls-1" d="M28.26,86.53c-.75.84.58,2-.09,3.73-.87,2.28-3.75,2-4.48,4.3a3.55,3.55,0,0,0,.37,2.89c.77,1.21,2.23,1.45,5.14,1.87,3.61.53,5.52.78,6.72-.46a3.71,3.71,0,0,0,.94-2.34c0-1.78-1.61-2.18-2.15-4.3-.47-1.84.54-2.35,0-3.64C33.74,86.28,29.39,85.26,28.26,86.53Z"/><path class="cls-2" d="M52.22,87.34c.71.88-.67,2-.1,3.74.76,2.31,3.65,2.16,4.27,4.51a3.61,3.61,0,0,1-.52,2.88c-.83,1.16-2.3,1.32-5.23,1.6-3.63.35-5.55.51-6.69-.8a3.71,3.71,0,0,1-.82-2.38c.1-1.78,1.72-2.09,2.36-4.18.56-1.82-.42-2.38.19-3.64C46.76,86.82,51.15,86,52.22,87.34Z"/><path class="cls-3" d="M76.65,53.49a2.67,2.67,0,0,1-1.43,1.71c-1.2.6-2.42-.05-4.72-.85-3.23-1.13-5.76-2-6.58-1.15-.53.56,0,1.41.42,3.72a21.8,21.8,0,0,1,0,6.72,42.61,42.61,0,0,1-1.71,6.44,45.29,45.29,0,0,1-2.15,6.15,25.37,25.37,0,0,1-2.86,4.87,25,25,0,0,1-5.44,5.29,18.74,18.74,0,0,1-6.43,3.29,17.6,17.6,0,0,1-8.3.14,27.7,27.7,0,0,1-7.72-2.28A21.23,21.23,0,0,1,22,81c-2.08-2.55-2.9-5-4-8.45a42.09,42.09,0,0,1-1.71-7.86,33.41,33.41,0,0,1-.43-9,23.86,23.86,0,0,1,.63-3.51l-.16.08c-.5.23-1.65.72-2.71,1.14-4,1.59-5.34,1.8-5.87,1.86-1.31.17-3.72.48-4.29-.57-.44-.8.52-2,1.29-3.29a15.47,15.47,0,0,1,4.72-4.72,56.09,56.09,0,0,1,6-4.29,28.4,28.4,0,0,1,6.63-2.47,9.63,9.63,0,0,0,1-3.25c.63-4.24-1.43-4.4-1.14-9.45a19.48,19.48,0,0,1,5-12,19,19,0,0,1,9.72-5.58,18.57,18.57,0,0,1,9.16.28,17.66,17.66,0,0,1,7.3,4.3,15,15,0,0,1,4.29,7.15c1.13,4.84-1.4,7.23-.15,13.88A11,11,0,0,0,58.19,38c1.49,3,4.21,4.15,7.16,5.72C67.71,45,77.28,50.13,76.65,53.49Z"/><path class="cls-4" d="M20.2,57.35a27.08,27.08,0,0,1,1.72-11.73c1.21-2.94,2.39-4,3.43-7.87a20.94,20.94,0,0,0,.86-5.58c0-3-.7-3.38-.57-5.72a12.93,12.93,0,0,1,2.43-6.72,14,14,0,0,1,6.15-4.87,16.38,16.38,0,0,1,6.15-1.14,12.94,12.94,0,0,1,6,.71,11.88,11.88,0,0,1,4.29,3.29,14.26,14.26,0,0,1,3.86,6.87c1,5.08-2.59,7.25-1,11.45.59,1.55,1,1,2.72,4a27.66,27.66,0,0,1,3,7.44,31.06,31.06,0,0,1,.57,6.72,47.35,47.35,0,0,1-.43,8.73,31.15,31.15,0,0,1-2.29,8.58A21.27,21.27,0,0,1,52.25,79a16.41,16.41,0,0,1-8.16,4.58,16.34,16.34,0,0,1-7.72-.43,19.63,19.63,0,0,1-7.44-3.72c-3.91-3.23-5.3-7.21-6.73-11.3A35.72,35.72,0,0,1,20.2,57.35Z"/><circle class="cls-5" cx="33.55" cy="24.32" r="2.67"/><circle class="cls-6" cx="46.93" cy="24.32" r="2.67"/><path class="cls-7" d="M39.39,26.83c1.76.07,3,1.62,3.69,2.64a5.76,5.76,0,0,1,.77,3.27A3.6,3.6,0,0,1,42.94,35a4.19,4.19,0,0,1-3.35,1,4.67,4.67,0,0,1-3.74-1.65,4.28,4.28,0,0,1-.52-3.38C35.73,29,37.37,26.76,39.39,26.83Z"/><path class="cls-8" d="M40.37,25.92c1.75.07,3,1.62,3.68,2.64a5.73,5.73,0,0,1,.77,3.27,3.6,3.6,0,0,1-.91,2.23,4.19,4.19,0,0,1-3.35,1,4.68,4.68,0,0,1-3.74-1.65A4.28,4.28,0,0,1,36.3,30C36.7,28.12,38.35,25.85,40.37,25.92Z"/><path class="Style-graphique-3" d="M21,17.74c-.77-1.17.11-2.6,1.08-5.76,1.21-4,.5-4,1.46-5.77a11.46,11.46,0,0,1,4.89-4.59A14.56,14.56,0,0,1,35.39.25a25.77,25.77,0,0,1,9,1.57A38.89,38.89,0,0,1,52,5.43c2.61,1.49,4,2.26,5.27,3.72s3.79,4.9,2.74,6.64C59.28,17,57.18,17,55.91,17c-15.77-.31-19.42-3.31-24.63-.88-2.45,1.15-5.2,3.48-8.4,2.74A2.79,2.79,0,0,1,21,17.74Z"/><path class="Style-graphique-3" d="M23.75,22a3.31,3.31,0,0,1-2.64-.58c-1.12-1.05-.69-3.07-.39-4.5a12.7,12.7,0,0,1,2.44-5.18C25.39,9,28.16,8,30.78,7a27.06,27.06,0,0,1,8.7-1.56,28.45,28.45,0,0,1,15.93,4.69c3.07,1.93,4.91,3.13,5.18,5.18a5.3,5.3,0,0,1-1.08,3.61,5.54,5.54,0,0,1-2.83,1.86c-2.45.58-4.22-1.3-6.84-2.64-5-2.56-10.32-1.74-13.39-1.27-4.34.67-7.4,1.14-9.48,3.23A5.73,5.73,0,0,1,23.75,22Z"/><path class="Style-graphique-3" d="M71.45,47.11c-1.31.83-.5,2.22-2.06,4.58-1,1.45-2,2-1.77,2.89,0,.24.16.39,1.17,1.47s1.41,1.52,1.59,1.68a9.17,9.17,0,0,0,3.18,2.1,5.07,5.07,0,0,0,3.62.19,4.89,4.89,0,0,0,2.47-2.45,5.12,5.12,0,0,0,.61-3,2.53,2.53,0,0,0-.43-1.38c-.6-.75-1.65-.71-3-1.68-.15-.11-.38-.28-.34-.43s.3-.19,1.34-.33c.85-.12.92-.12,1-.21a1.72,1.72,0,0,0,.28-1.82,2.51,2.51,0,0,0-1-1.2c-.73-.48-1.47-.57-3.26-.57C72.8,46.92,71.75,46.92,71.45,47.11Z"/><path class="Style-graphique-3" d="M7.69,46.74c1.43.6.87,2.1,2.81,4.17,1.19,1.27,2.26,1.61,2.23,2.55,0,.24-.09.41-.9,1.64S10.69,56.84,10.54,57a8.89,8.89,0,0,1-2.78,2.6,5.07,5.07,0,0,1-3.54.8,4.79,4.79,0,0,1-2.84-2A5,5,0,0,1,.26,55.56a2.52,2.52,0,0,1,.19-1.44c.47-.84,1.51-1,2.67-2.16.12-.13.32-.35.26-.49s-.32-.13-1.38-.1c-.86,0-.92,0-1,0a1.74,1.74,0,0,1-.58-1.75,2.5,2.5,0,0,1,.79-1.34c.63-.6,1.35-.81,3.11-1.11C6.33,46.78,7.36,46.6,7.69,46.74Z"/><path class="Style-graphique-2" d="M7.9,46.13A14.55,14.55,0,0,0,9.69,51c.43.73,2.32,3.92,3.71,3.51a1.27,1.27,0,0,0,.8-.91c.23-1.11-1.43-1.68-2.9-3.84s-1.59-4.33-2.48-4.35C8.44,45.4,8.12,45.78,7.9,46.13Z"/><path class="Style-graphique-2" d="M71.79,46.29a14.48,14.48,0,0,1-1.27,5c-.35.78-1.89,4.14-3.31,3.88a1.26,1.26,0,0,1-.9-.82c-.35-1.07,1.25-1.82,2.49-4.12s1.11-4.47,2-4.59C71.17,45.63,71.53,46,71.79,46.29Z"/></g></g></svg>